<svg xmlns="http://www.w3.org/2000/svg" version="1.1" xmlns:xlink="http://www.w3.org/1999/xlink" xmlns:svgjs="http://svgjs.dev/svgjs" width="1500" height="1500" viewBox="0 0 1500 1500"><rect width="1500" height="1500" fill="#ffffff"></rect><g transform="matrix(0.6666666666666666,0,0,0.6666666666666666,249.39414060787328,624.547378529793)"><svg viewBox="0 0 396 99" data-background-color="#f9f6ed" preserveAspectRatio="xMidYMid meet" height="375" width="1500" xmlns="http://www.w3.org/2000/svg" xmlns:xlink="http://www.w3.org/1999/xlink"><g id="tight-bounds" transform="matrix(1,0,0,1,0.23992031928219149,0.1792381022019356)"><svg viewBox="0 0 395.52 98.64136443416062" height="98.64136443416062" width="395.52"><g><svg viewBox="0 0 575.3395890112325 143.48776818632984" height="98.64136443416062" width="395.52"><g transform="matrix(1,0,0,1,0,33.2691759219587)"><svg viewBox="0 0 395.52 76.94941634241245" height="76.94941634241245" width="395.52"><g id="textblocktransform"><svg viewBox="0 0 395.52 76.94941634241245" height="76.94941634241245" width="395.52" id="textblock"><g><svg viewBox="0 0 395.52 76.94941634241245" height="76.94941634241245" width="395.52"><g transform="matrix(1,0,0,1,0,0)"><svg width="395.52" viewBox="1.05 -37.5 256.97999999999996 50" height="76.94941634241245" data-palette-color="#ff2143"><path d="M35.7-18.1L35.7-18.1Q35.7-7.8 29.9-3.75L29.9-3.75Q24.55 0 15.2 0L15.2 0 1.05 0 1.05-0.95 4.35-0.95 4.35-34.05 1.05-34.05 1.05-35 16.5-35Q26.1-35 30.9-31.08 35.7-27.15 35.7-18.1ZM14.1-34.05L14.1-0.95 16-0.95Q21.05-0.95 23.23-4.53 25.4-8.1 25.4-16.5L25.4-16.5 25.4-19.4Q25.4-30.65 21.1-32.95L21.1-32.95Q19.05-34.05 15.3-34.05L15.3-34.05 14.1-34.05ZM50-11.75L50-11.75 51.45-11.75 51.45-15.6Q51.45-20.35 50.92-21.98 50.4-23.6 48.9-23.6L48.9-23.6Q48-23.6 47.27-23.13 46.55-22.65 46.55-21.83 46.55-21 46.85-20.15L46.85-20.15 48.1-20.15Q48.5-19.1 48.5-17.63 48.5-16.15 47.25-15.08 46-14 44.1-14L44.1-14Q39.8-14 39.8-18.15L39.8-18.15Q39.8-24.3 50.25-24.3L50.25-24.3Q56.2-24.3 58.47-22.28 60.75-20.25 60.75-14.85L60.75-14.85 60.75-4.7Q60.75-2.1 62.2-2.1L62.2-2.1Q63.9-2.1 64.2-7.25L64.2-7.25 64.95-7.2Q64.75-2.8 63.3-1.15 61.85 0.5 58.55 0.5L58.55 0.5Q52.55 0.5 51.65-3.2L51.65-3.2Q51-1.3 49.7-0.4 48.4 0.5 45.9 0.5L45.9 0.5Q38.5 0.5 38.5-5.55L38.5-5.55Q38.5-9.1 41.32-10.43 44.15-11.75 50-11.75ZM48-5.6Q48-3 48.27-2.25 48.55-1.5 49.32-1.5 50.1-1.5 50.77-2.78 51.45-4.05 51.45-6.3L51.45-6.3 51.45-10.95 51.1-10.95Q48-10.95 48-6.4L48-6.4 48-5.6ZM72.8-27.25Q70.15-27.25 69.02-28.6 67.9-29.95 67.9-31.95 67.9-33.95 69.12-35.25 70.35-36.55 72.85-36.55 75.35-36.55 76.65-35.38 77.95-34.2 77.95-32.02 77.95-29.85 76.7-28.55 75.45-27.25 72.8-27.25ZM65.25-22.9L65.25-23.8 77.5-23.8 77.5-0.9 80.3-0.9 80.3 0 65.45 0 65.45-0.9 68.2-0.9 68.2-22.9 65.25-22.9ZM81.09-36.6L81.09-37.5 93.34-37.5 93.34-0.9 96.14-0.9 96.14 0 81.29 0 81.29-0.9 84.04-0.9 84.04-36.6 81.09-36.6ZM98.14-22.9L96.09-22.9 96.09-23.8 110.59-23.8 110.59-22.9 107.89-22.9 113.34-6.3 119.14-22.9 115.79-22.9 115.79-23.8 122.84-23.8 122.84-22.9 120.34-22.9 110.99 4.05Q109.34 8.75 107.29 10.63 105.24 12.5 102.29 12.5 99.34 12.5 97.64 11.15 95.94 9.8 95.94 7.7 95.94 5.6 97.04 4.5 98.14 3.4 99.94 3.4L99.94 3.4Q104.09 3.4 104.09 6.85L104.09 6.85Q104.09 7.6 103.79 8.65L103.79 8.65 102.04 8.65Q101.64 9.8 101.94 10.55 102.24 11.3 103.29 11.3L103.29 11.3Q105.34 11.3 106.94 9.28 108.54 7.25 109.99 3.1L109.99 3.1 111.09 0 106.69 0 98.14-22.9ZM156.49-15.45L156.49-15.45 156.49-19.15Q156.49-28.3 155.59-30.7L155.59-30.7Q154.59-33.45 152.74-34.1L152.74-34.1Q151.69-34.5 150.19-34.5 148.69-34.5 147.61-34.1 146.54-33.7 145.84-32.7 145.14-31.7 144.71-30.6 144.29-29.5 144.04-27.5L144.04-27.5Q143.74-24.6 143.74-18.95L143.74-18.95 143.74-15.35Q143.74-9.25 144.21-6.68 144.69-4.1 145.39-3L145.39-3Q146.94-0.55 150.19-0.55L150.19-0.55Q154.14-0.55 155.31-3.88 156.49-7.2 156.49-15.45ZM150.09 0.5Q141.74 0.5 137.61-4.03 133.49-8.55 133.49-17.13 133.49-25.7 137.91-30.63 142.34-35.55 150.44-35.55 158.54-35.55 162.66-30.88 166.79-26.2 166.79-17.6 166.79-9 162.61-4.25 158.44 0.5 150.09 0.5ZM186.03-22.4L186.03-22.4Q184.18-22.4 182.78-20 181.38-17.6 181.38-14.3L181.38-14.3 181.38-0.9 184.93-0.9 184.93 0 169.33 0 169.33-0.9 172.08-0.9 172.08-22.9 169.33-22.9 169.33-23.8 181.38-23.8 181.38-19Q182.03-21.55 183.88-22.93 185.73-24.3 188.08-24.3 190.43-24.3 191.91-22.98 193.38-21.65 193.38-19.23 193.38-16.8 192.28-15.5 191.18-14.2 188.91-14.2 186.63-14.2 185.56-15.7 184.48-17.2 185.28-19.85L185.28-19.85 187.08-19.85Q188.33-22.4 186.03-22.4ZM211.83-13.45Q211.83-18.6 211.33-20.38 210.83-22.15 209.38-22.15 207.93-22.15 206.78-20.35 205.63-18.55 205.63-15.4L205.63-15.4 205.63-6.1Q205.63-3.95 206.51-2.45 207.38-0.95 209.01-0.95 210.63-0.95 211.23-3.15 211.83-5.35 211.83-10.85L211.83-10.85 211.83-13.45ZM193.58-37.5L205.63-37.5 205.63-20Q207.53-24.3 212.13-24.3L212.13-24.3Q221.48-24.3 221.48-11.85L221.48-11.85Q221.48-5.5 218.91-2.5 216.33 0.5 211.18 0.5L211.18 0.5Q208.58 0.5 207.21-0.3 205.83-1.1 205.33-2.95L205.33-2.95 204.98 0 193.58 0 193.58-0.9 196.33-0.9 196.33-36.6 193.58-36.6 193.58-37.5ZM230.33-27.25Q227.68-27.25 226.55-28.6 225.43-29.95 225.43-31.95 225.43-33.95 226.65-35.25 227.88-36.55 230.38-36.55 232.88-36.55 234.18-35.38 235.48-34.2 235.48-32.02 235.48-29.85 234.23-28.55 232.98-27.25 230.33-27.25ZM222.78-22.9L222.78-23.8 235.03-23.8 235.03-0.9 237.83-0.9 237.83 0 222.98 0 222.98-0.9 225.73-0.9 225.73-22.9 222.78-22.9ZM241.33-7.15L241.33-7.15 241.33-22.9 238.58-22.9 238.58-23.8 241.33-23.8 241.33-30.25 250.63-32.55 250.63-23.8 257.13-23.8 257.13-22.9 250.63-22.9 250.63-6.05Q250.63-3.7 251.1-2.6 251.58-1.5 253.08-1.5 254.58-1.5 255.7-3 256.83-4.5 257.18-7.1L257.18-7.1 258.03-7Q257.63-3.55 255.83-1.53 254.03 0.5 249.88 0.5 245.73 0.5 243.53-1.15 241.33-2.8 241.33-7.15Z" opacity="1" transform="matrix(1,0,0,1,0,0)" fill="#000000" class="wordmark-text-0" data-fill-palette-color="primary" id="text-0"></path></svg></g></svg></g></svg></g></svg></g><g transform="matrix(1,0,0,1,431.8518208249027,0)"><svg viewBox="0 0 143.48776818632984 143.48776818632984" height="143.48776818632984" width="143.48776818632984"><g><svg></svg></g><g id="icon-0"><svg viewBox="0 0 143.48776818632984 143.48776818632984" height="143.48776818632984" width="143.48776818632984"><g><path d="M0 71.744c0-39.623 32.121-71.744 71.744-71.744 39.623 0 71.744 32.121 71.744 71.744 0 39.623-32.121 71.744-71.744 71.744-39.623 0-71.744-32.121-71.744-71.744zM71.744 136.548c35.791 0 64.805-29.014 64.804-64.804 0-35.791-29.014-64.805-64.804-64.805-35.791 0-64.805 29.014-64.805 64.805 0 35.791 29.014 64.805 64.805 64.804z" data-fill-palette-color="accent" fill="#000000" stroke="transparent"></path></g><g transform="matrix(1,0,0,1,32.66090204138706,32.66090204138706)"><svg viewBox="0 0 78.16596410355572 78.16596410355572" height="78.16596410355572" width="78.16596410355572"><g><svg xmlns="http://www.w3.org/2000/svg" xmlns:xlink="http://www.w3.org/1999/xlink" version="1.1" x="0" y="0" viewBox="48 48 416 416" enable-background="new 0 0 512 512" xml:space="preserve" height="78.16596410355572" width="78.16596410355572" class="icon-dxe-0" data-fill-palette-color="accent" id="dxe-0"><g fill="#ff2143" data-fill-palette-color="accent"><path d="M423.592 132.804A31.86 31.86 0 0 0 429 115C429 97.325 414.67 83 397 83A31.85 31.85 0 0 0 379.195 88.409C344.709 63.015 302.11 48 256 48 141.125 48 48 141.125 48 256 48 370.877 141.125 464 256 464 370.873 464 464 370.877 464 256 464 209.889 448.984 167.29 423.592 132.804M391.83 391.832C374.184 409.478 353.639 423.331 330.766 433.006 307.094 443.018 281.94 448.095 256 448.095S204.905 443.018 181.233 433.006C158.36 423.331 137.816 409.479 120.169 391.832S88.669 353.641 78.995 330.768C68.982 307.096 63.905 281.94 63.905 256S68.982 204.905 78.994 181.233C88.668 158.36 102.521 137.816 120.168 120.169S158.359 88.669 181.232 78.995C204.905 68.982 230.06 63.905 256 63.905S307.094 68.982 330.766 78.994A191.2 191.2 0 0 1 368.568 100.321 31.85 31.85 0 0 0 365 115C365 132.675 379.327 147 397 147 402.293 147 407.28 145.707 411.678 143.432A191 191 0 0 1 433.005 181.233C443.018 204.905 448.095 230.06 448.095 256S443.018 307.096 433.005 330.768C423.33 353.641 409.478 374.186 391.83 391.832" fill="#000000" data-fill-palette-color="accent"></path><circle cx="256.003" cy="256" r="96" fill="#000000" data-fill-palette-color="accent"></circle></g></svg></g></svg></g></svg></g></svg></g></svg></g><defs></defs></svg><rect width="395.52" height="98.64136443416062" fill="none" stroke="none" visibility="hidden"></rect></g></svg></g></svg>